# xmcd CD database file
#
# Track frame offsets:
#	150
#	17314
#	36588
#	65584
#	117147
#	167119
#	213580
#
# Disc length: 3126 seconds
#
# Revision: 0
# Processed by: cddbd v1.4PL0 Copyright (c) Steve Scherf et al.
# Submitted via: CDex 1.51
#
DISCID=5d0c3407
DTITLE=Various Artist - inner peace
DYEAR=1900
DGENRE=New Age
TTITLE0=dusk fantasy
TTITLE1=lumiere l'apres
TTITLE2=geeta
TTITLE3=bamboo forest
TTITLE4=nilapadma
TTITLE5=messenger
TTITLE6=interlude in d
EXTD=
EXTT0=
EXTT1=
EXTT2=
EXTT3=
EXTT4=
EXTT5=
EXTT6=
PLAYORDER=
